# This file uses centimeters as units for non-parametric coordinates.

mtllib Booster.mtl
g default
v -0.849035 -0.002099 0.266005
v 0.376642 -0.002099 0.266005
v -0.849035 0.052594 0.266005
v 0.376642 0.002042 0.266005
v -0.190258 -0.002099 0.266005
v -0.190258 0.052594 0.266005
v -0.190258 -0.002099 0.313882
v -0.190258 -0.001582 0.313882
v -0.849035 0.052594 0.000000
v -0.190258 0.052594 0.000000
v -0.846694 -0.001582 0.316968
v -0.846694 -0.002099 0.316968
v -0.995584 -0.002099 0.266005
v -0.995584 -0.001582 0.266005
v -0.729069 0.052594 0.266005
v -0.826308 0.077612 0.266005
v -0.787716 0.077803 0.266005
v 0.287585 0.052594 0.266005
v 0.287585 -0.002099 0.266005
v 0.287585 -0.002099 0.000000
v -0.849035 -0.002099 -0.266005
v 0.376642 -0.002099 -0.266005
v -0.849035 0.052594 -0.266005
v 0.376642 0.002042 -0.266005
v -0.190258 -0.002099 -0.266005
v -0.190258 0.052594 -0.266005
v -0.190258 -0.002099 -0.313882
v -0.190258 -0.001582 -0.313882
v -0.846694 -0.001582 -0.316968
v -0.846694 -0.002099 -0.316968
v -0.995584 -0.002099 -0.266005
v -0.995584 -0.001582 -0.266005
v -0.729069 0.052594 -0.266005
v -0.826308 0.077612 -0.266005
v -0.787716 0.077803 -0.266005
v 0.287585 0.052594 -0.266005
v 0.287585 -0.002099 -0.266005
v -0.190522 0.052550 0.000000
v -0.189995 0.052638 0.266005
vt 0.371731 0.000191
vt 0.625000 0.000000
vt 0.367643 0.245286
vt 0.625000 0.250000
vt 0.375009 0.999989
vt 0.625000 1.000000
vt 0.449528 0.000000
vt 0.449528 1.000000
vt 0.449528 0.250000
vt 0.449528 0.000000
vt 0.449528 0.250000
vt 0.370947 0.366372
vt 0.449528 0.375777
vt 0.366364 0.247260
vt 0.367604 -0.000490
vt 0.345527 0.000469
vt 0.344558 0.249096
vt 0.382554 0.246145
vt 0.367643 0.245286
vt 0.382554 0.246145
vt 0.597434 0.250000
vt 0.597434 0.000000
vt 0.597434 1.000000
vt 0.597434 0.874223
vt 0.597434 0.250000
vt 0.597434 0.000000
vt 0.625000 0.000000
vt 0.625000 0.250000
vt 0.366364 0.247260
vt 0.367604 -0.000490
vt 0.449528 0.000000
vt 0.449528 0.250000
vt 0.371731 0.000191
vt 0.449528 0.000000
vt 0.449528 0.250000
vt 0.382554 0.246145
vt 0.367643 0.245286
vt 0.367643 0.245286
vt 0.382554 0.246145
vt 0.597434 1.000000
vt 0.597434 0.874223
vt 0.625000 1.000000
vt 0.449528 1.000000
vt 0.375009 0.999989
vt 0.345527 0.000469
vt 0.344558 0.249096
vt 0.245185 0.247261
vt 0.449528 0.375777
vt 0.000000 0.000000
vt 1.000000 0.000000
vt 1.000000 1.000000
vt 0.000000 1.000000
vn -0.000000 0.000000 1.000000
vn -0.000000 0.000000 1.000000
vn 0.000000 0.000000 1.000000
vn 0.000000 0.000000 1.000000
vn 0.004702 0.000000 0.999989
vn 0.004702 0.000000 0.999989
vn 0.004702 0.000000 0.999989
vn 0.004702 0.000000 0.999989
vn 0.000000 -1.000000 -0.000000
vn 0.000000 -1.000000 -0.000000
vn 0.000000 -1.000000 -0.000000
vn 0.000000 -1.000000 -0.000000
vn 1.000000 0.000000 0.000000
vn 1.000000 0.000000 0.000000
vn 1.000000 0.000000 0.000000
vn 1.000000 0.000000 0.000000
vn 0.000260 0.993827 0.110938
vn 0.000466 0.980088 0.198562
vn 0.001734 0.673955 0.738771
vn 0.001734 0.673955 0.738771
vn 0.001734 0.673955 0.738771
vn -0.323815 0.000059 0.946120
vn -0.323815 0.000059 0.946120
vn -0.323815 0.000059 0.946120
vn -0.323815 0.000059 0.946120
vn -0.243592 0.658938 0.711663
vn -0.243592 0.658938 0.711663
vn -0.243592 0.658938 0.711663
vn 0.000000 -1.000000 -0.000002
vn 0.000000 -1.000000 -0.000002
vn 0.000000 -1.000000 -0.000002
vn 0.000000 0.000000 1.000000
vn 0.000000 0.000000 1.000000
vn 0.000000 0.000000 1.000000
vn 0.000000 0.000000 1.000000
vn 0.394901 0.918724 0.000000
vn 0.394901 0.918724 0.000000
vn 0.394901 0.918724 0.000000
vn 0.394901 0.918724 0.000000
vn -0.000000 0.000000 1.000000
vn -0.000000 0.000000 1.000000
vn -0.000000 0.000000 -1.000000
vn 0.000000 0.000000 -1.000000
vn 0.000000 0.000000 -1.000000
vn -0.000000 0.000000 -1.000000
vn 0.004702 0.000000 -0.999989
vn 0.004702 0.000000 -0.999989
vn 0.004702 0.000000 -0.999989
vn 0.004702 0.000000 -0.999989
vn 0.000000 -1.000000 0.000000
vn 0.000000 -1.000000 0.000001
vn 0.000000 -1.000000 0.000001
vn 0.000000 -1.000000 0.000000
vn 1.000000 0.000000 0.000000
vn 1.000000 0.000000 0.000000
vn 1.000000 0.000000 0.000000
vn 1.000000 0.000000 0.000000
vn 0.000146 0.998075 -0.062015
vn 0.001734 0.673955 -0.738771
vn 0.001734 0.673954 -0.738771
vn 0.001734 0.673955 -0.738771
vn 0.000466 0.980088 -0.198562
vn -0.004935 0.999988 0.000000
vn -0.004935 0.999988 0.000000
vn -0.004935 0.999988 0.000000
vn -0.004935 0.999988 0.000000
vn 0.493649 0.869661 0.000000
vn 0.493649 0.869661 0.000000
vn 0.088819 0.996048 0.000000
vn 0.088819 0.996048 0.000000
vn 1.000000 0.000000 0.000000
vn 1.000000 0.000000 0.000000
vn 1.000000 0.000000 0.000000
vn 1.000000 0.000000 0.000000
vn 0.000000 -1.000000 0.000000
vn 0.000000 -1.000000 0.000000
vn 0.000000 -1.000000 0.000000
vn 0.000000 -1.000000 0.000000
vn 0.000000 -1.000000 0.000000
vn 0.000000 -1.000000 0.000000
vn 0.000000 -1.000000 0.000000
vn -1.000000 0.000001 0.000000
vn -1.000000 0.000001 0.000000
vn -1.000000 0.000001 0.000000
vn -1.000000 0.000001 0.000000
vn -0.346740 0.937961 0.000000
vn -0.346740 0.937961 0.000000
vn -0.346740 0.937961 0.000000
vn -0.346740 0.937961 0.000000
vn -0.346740 0.937961 0.000000
vn -0.323815 0.000059 -0.946120
vn -0.323815 0.000059 -0.946120
vn -0.323815 0.000059 -0.946120
vn -0.323815 0.000059 -0.946120
vn -0.243592 0.658938 -0.711663
vn -0.243592 0.658938 -0.711663
vn -0.243592 0.658938 -0.711663
vn 0.000000 -1.000000 0.000002
vn 0.000000 -1.000000 0.000002
vn 0.000000 -1.000000 0.000002
vn 0.000000 1.000000 0.000000
vn 0.000000 0.000000 -1.000000
vn 0.000000 0.000000 -1.000000
vn 0.000000 0.000000 -1.000000
vn 0.000000 0.000000 -1.000000
vn -0.740197 0.672390 0.000000
vn -0.740197 0.672390 0.000000
vn -0.740197 0.672390 0.000000
vn -0.740197 0.672390 0.000000
vn -0.740197 0.672390 0.000000
vn 0.000000 1.000000 0.000000
vn -0.000000 0.000000 -1.000000
vn -0.000000 0.000000 -1.000000
vn -0.000040 -0.999998 0.002090
vn -0.000040 -0.999998 0.002090
vn -0.000040 -0.999998 0.002090
vn -0.000040 -0.999998 0.002090
s 1
g pCube1
usemtl initialShadingGroup
f 18/21/1 19/22/2 2/2/3 4/4/4
s off
f 11/14/5 12/15/6 7/10/7 8/11/8
s 2
f 1/1/9 5/7/10 7/10/11 12/15/12
s off
f 5/7/13 6/9/14 8/11/15 7/10/16
s 3
f 6/9/17 15/18/18 3/3/19 11/14/20 8/11/21
s off
f 12/15/22 11/14/23 14/17/24 13/16/25
f 11/14/26 3/3/27 14/17/28
f 1/1/29 12/15/30 13/16/31
f 3/3/32 15/18/33 17/20/34 16/19/35
f 17/20/36 15/18/37 33/36/38 35/39/39
s 1
f 6/9/40 5/7/41 19/22/2 18/21/1
s 4
f 36/25/42 24/28/43 22/27/44 37/26/45
s off
f 29/29/46 28/32/47 27/31/48 30/30/49
s 2
f 21/33/50 30/30/51 27/31/52 25/34/53
s off
f 25/34/54 27/31/55 28/32/56 26/35/57
s 3
f 26/35/58 28/32/59 29/29/60 23/37/61 33/36/62
s off
f 17/20/63 35/39/64 34/38/65 16/19/66
s 3
f 4/4/67 24/28/68 36/25/69 18/21/70
s off
f 2/2/71 22/27/72 24/28/73 4/4/74
s 2
f 20/41/75 37/40/76 22/42/77 2/6/78 19/23/79
f 1/5/9 21/44/50 25/43/53 5/8/10
f 13/16/80 31/45/81 21/33/50 1/1/9
s off
f 14/17/82 32/46/83 31/45/84 13/16/85
f 9/47/86 23/37/87 32/46/88 14/17/89 3/3/90
f 30/30/91 31/45/92 32/46/93 29/29/94
f 29/29/95 32/46/96 23/37/97
f 21/33/98 31/45/99 30/30/100
s 3
f 10/48/101 26/35/58 33/36/62 15/18/18 6/9/17
s off
f 23/37/102 34/38/103 35/39/104 33/36/105
f 16/19/106 34/38/107 23/37/108 9/12/109 3/3/110
s 3
f 18/21/70 36/25/69 26/35/58 10/13/101 6/9/111
s 4
f 26/35/112 36/25/42 37/26/45 25/34/113
s 2
f 5/8/10 25/43/53 37/40/76 20/24/75 19/23/79
s off
f 10/49/114 6/50/115 39/51/116 38/52/117
