# This file uses centimeters as units for non-parametric coordinates.

mtllib Golden ring.mtl
g default
v 0.452192 -1.743327 -0.998327
v 0.455342 -1.010847 -1.735274
v 0.459587 -0.008027 -2.007248
v 0.463790 0.996426 -1.741366
v 0.466825 1.733367 -1.008879
v 0.467878 2.005339 -0.006050
v 0.466667 1.739460 0.998411
v 0.463517 1.006979 1.735358
v 0.459272 0.004160 2.007332
v 0.455069 -1.000293 1.741451
v 0.452034 -1.737234 1.008964
v 0.450981 -2.009206 0.006134
v 0.409551 -2.179103 -1.248266
v 0.413490 -1.263250 -2.169704
v 0.418798 -0.009380 -2.509764
v 0.424053 1.246531 -2.177322
v 0.427847 2.167961 -1.261460
v 0.429164 2.508019 -0.007579
v 0.427650 2.175580 1.248342
v 0.423711 1.259726 2.169781
v 0.418403 0.005857 2.509841
v 0.413148 -1.250054 2.177399
v 0.409354 -2.171485 1.261536
v 0.408037 -2.511542 0.007656
v 0.299955 -2.398063 -1.374070
v 0.304290 -1.389915 -2.388366
v 0.310133 -0.009691 -2.762692
v 0.315918 1.372781 -2.396751
v 0.320094 2.387068 -1.388594
v 0.321544 2.761392 -0.008357
v 0.319877 2.395454 1.374127
v 0.315542 1.387306 2.388422
v 0.309699 0.007082 2.762749
v 0.303914 -1.375389 2.396808
v 0.299738 -2.389677 1.388650
v 0.298288 -2.764000 0.008414
v 0.143310 -2.537912 -1.454638
v 0.147900 -1.470662 -2.528396
v 0.154085 -0.009525 -2.924664
v 0.160209 1.453990 -2.537273
v 0.164631 2.527739 -1.470013
v 0.166165 2.924005 -0.008863
v 0.164401 2.536617 1.454666
v 0.159811 1.469367 2.528424
v 0.153626 0.008230 2.924692
v 0.147502 -1.455285 2.537301
v 0.143080 -2.529034 1.470041
v 0.141546 -2.925300 0.008891
v -0.010744 -2.585135 -1.482099
v -0.006068 -1.497752 -2.576113
v 0.000234 -0.009045 -2.979864
v 0.006473 1.482085 -2.585158
v 0.010978 2.576090 -1.497765
v 0.012541 2.979837 -0.009044
v 0.010744 2.585135 1.482099
v 0.006068 1.497752 2.576113
v -0.000234 0.009045 2.979864
v -0.006474 -1.482085 2.585158
v -0.010979 -2.576090 1.497765
v -0.012542 -2.979837 0.009044
v -0.163902 -2.536620 -1.454666
v -0.159312 -1.469369 -2.528424
v -0.153126 -0.008233 -2.924692
v -0.147003 1.455283 -2.537301
v -0.142581 2.529032 -1.470041
v -0.141047 2.925298 -0.008891
v -0.142811 2.537910 1.454638
v -0.147401 1.470660 2.528396
v -0.153586 0.009523 2.924664
v -0.159710 -1.453992 2.537273
v -0.164131 -2.527742 1.470013
v -0.165666 -2.924007 0.008863
v -0.285829 -2.395597 -1.374123
v -0.281493 -1.387450 -2.388419
v -0.275650 -0.007225 -2.762745
v -0.269866 1.375246 -2.396804
v -0.265689 2.389533 -1.388647
v -0.264240 2.763857 -0.008411
v -0.265906 2.397919 1.374073
v -0.270242 1.389772 2.388369
v -0.276085 0.009547 2.762695
v -0.281869 -1.372924 2.396754
v -0.286046 -2.387211 1.388597
v -0.287495 -2.761535 0.008360
v -0.363274 -2.211078 -1.268532
v -0.359271 -1.280407 -2.204878
v -0.353877 -0.006252 -2.550439
v -0.348537 1.269978 -2.212619
v -0.344682 2.206316 -1.281940
v -0.343344 2.551873 -0.007773
v -0.344882 2.214058 1.268467
v -0.348884 1.283387 2.204814
v -0.354278 0.009232 2.550375
v -0.359618 -1.266997 2.212555
v -0.363474 -2.203336 1.281875
v -0.364812 -2.548894 0.007709
v -0.466670 -1.739460 -0.998411
v -0.463520 -1.006980 -1.735358
v -0.459274 -0.004160 -2.007332
v -0.455071 1.000293 -1.741450
v -0.452037 1.737234 -1.008963
v -0.450984 2.009206 -0.006134
v -0.452195 1.743327 0.998327
v -0.455345 1.010846 1.735274
v -0.459590 0.008027 2.007248
v -0.463793 -0.996426 1.741367
v -0.466827 -1.733367 1.008880
v -0.467880 -2.005339 0.006051
vt 0.000000 0.750000
vt 0.083333 0.750000
vt 0.166667 0.750000
vt 0.250000 0.750000
vt 0.333333 0.750000
vt 0.416667 0.750000
vt 0.500000 0.750000
vt 0.583333 0.750000
vt 0.666667 0.750000
vt 0.750000 0.750000
vt 0.833333 0.750000
vt 0.916667 0.750000
vt 1.000000 0.750000
vt 0.000000 0.687500
vt 0.083333 0.687500
vt 0.166667 0.687500
vt 0.250000 0.687500
vt 0.333333 0.687500
vt 0.416667 0.687500
vt 0.500000 0.687500
vt 0.583333 0.687500
vt 0.666667 0.687500
vt 0.750000 0.687500
vt 0.833333 0.687500
vt 0.916667 0.687500
vt 1.000000 0.687500
vt 0.000000 0.625000
vt 0.083333 0.625000
vt 0.166667 0.625000
vt 0.250000 0.625000
vt 0.333333 0.625000
vt 0.416667 0.625000
vt 0.500000 0.625000
vt 0.583333 0.625000
vt 0.666667 0.625000
vt 0.750000 0.625000
vt 0.833333 0.625000
vt 0.916667 0.625000
vt 1.000000 0.625000
vt 0.000000 0.562500
vt 0.083333 0.562500
vt 0.166667 0.562500
vt 0.250000 0.562500
vt 0.333333 0.562500
vt 0.416667 0.562500
vt 0.500000 0.562500
vt 0.583333 0.562500
vt 0.666667 0.562500
vt 0.750000 0.562500
vt 0.833333 0.562500
vt 0.916667 0.562500
vt 1.000000 0.562500
vt 0.000000 0.500000
vt 0.083333 0.500000
vt 0.166667 0.500000
vt 0.250000 0.500000
vt 0.333333 0.500000
vt 0.416667 0.500000
vt 0.500000 0.500000
vt 0.583333 0.500000
vt 0.666667 0.500000
vt 0.750000 0.500000
vt 0.833333 0.500000
vt 0.916667 0.500000
vt 1.000000 0.500000
vt 0.000000 0.437500
vt 0.083333 0.437500
vt 0.166667 0.437500
vt 0.250000 0.437500
vt 0.333333 0.437500
vt 0.416667 0.437500
vt 0.500000 0.437500
vt 0.583333 0.437500
vt 0.666667 0.437500
vt 0.750000 0.437500
vt 0.833333 0.437500
vt 0.916667 0.437500
vt 1.000000 0.437500
vt 0.000000 0.375000
vt 0.083333 0.375000
vt 0.166667 0.375000
vt 0.250000 0.375000
vt 0.333333 0.375000
vt 0.416667 0.375000
vt 0.500000 0.375000
vt 0.583333 0.375000
vt 0.666667 0.375000
vt 0.750000 0.375000
vt 0.833333 0.375000
vt 0.916667 0.375000
vt 1.000000 0.375000
vt 0.000000 0.312500
vt 0.083333 0.312500
vt 0.166667 0.312500
vt 0.250000 0.312500
vt 0.333333 0.312500
vt 0.416667 0.312500
vt 0.500000 0.312500
vt 0.583333 0.312500
vt 0.666667 0.312500
vt 0.750000 0.312500
vt 0.833333 0.312500
vt 0.916667 0.312500
vt 1.000000 0.312500
vt 0.000000 0.250000
vt 0.083333 0.250000
vt 0.166667 0.250000
vt 0.250000 0.250000
vt 0.333333 0.250000
vt 0.416667 0.250000
vt 0.500000 0.250000
vt 0.583333 0.250000
vt 0.666667 0.250000
vt 0.750000 0.250000
vt 0.833333 0.250000
vt 0.916667 0.250000
vt 1.000000 0.250000
vn 0.996542 -0.044899 -0.069919
vn 0.996415 -0.074450 -0.040187
vn 0.972111 -0.204500 -0.114807
vn 0.972473 -0.120204 -0.199617
vn 0.996713 -0.004440 -0.080891
vn 0.972962 -0.004796 -0.230917
vn 0.996883 0.036083 -0.070165
vn 0.973446 0.110800 -0.200318
vn 0.997005 0.065815 -0.040613
vn 0.973795 0.195609 -0.116021
vn 0.997048 0.076787 -0.000155
vn 0.973916 0.226909 -0.000612
vn 0.996999 0.066061 0.040369
vn 0.973777 0.196311 0.114984
vn 0.996872 0.036509 0.070101
vn 0.973414 0.112014 0.199795
vn 0.996700 -0.003949 0.081074
vn 0.972925 -0.003393 0.231095
vn 0.996531 -0.044473 0.070347
vn 0.972442 -0.118989 0.200496
vn 0.996408 -0.074204 0.040795
vn 0.972093 -0.203799 0.116199
vn 0.996366 -0.085177 0.000337
vn 0.971971 -0.235098 0.000790
vn 0.823164 -0.493480 -0.280853
vn 0.824051 -0.287368 -0.488221
vn 0.825245 -0.005187 -0.564751
vn 0.826428 0.277453 -0.489936
vn 0.827282 0.484819 -0.283822
vn 0.827578 0.561348 -0.001639
vn 0.827237 0.486534 0.281004
vn 0.826351 0.280423 0.488372
vn 0.825156 -0.001758 0.564902
vn 0.823974 -0.284399 0.490086
vn 0.823120 -0.491765 0.283973
vn 0.822824 -0.568294 0.001790
vn 0.549934 -0.725172 -0.414366
vn 0.551241 -0.421120 -0.720271
vn 0.553004 -0.004856 -0.833165
vn 0.554748 0.412085 -0.722800
vn 0.556008 0.717988 -0.418746
vn 0.556445 0.830881 -0.002478
vn 0.555942 0.720518 0.414467
vn 0.554635 0.416466 0.720372
vn 0.552873 0.000202 0.833266
vn 0.551128 -0.416739 0.722901
vn 0.549868 -0.722642 0.418847
vn 0.549432 -0.835535 0.002580
vn -0.003575 -0.867530 -0.497371
vn -0.002006 -0.502624 -0.864503
vn 0.000109 -0.003036 -0.999995
vn 0.002203 0.497367 -0.867538
vn 0.003715 0.864495 -0.502629
vn 0.004239 0.999986 -0.003035
vn 0.003636 0.867530 0.497371
vn 0.002067 0.502624 0.864503
vn -0.000048 0.003035 0.999995
vn -0.002142 -0.497367 0.867538
vn -0.003654 -0.864495 0.502629
vn -0.004178 -0.999987 0.003035
vn -0.593855 -0.697358 -0.401284
vn -0.592589 -0.402981 -0.697456
vn -0.590883 0.000038 -0.806757
vn -0.589194 0.403713 -0.699905
vn -0.587974 0.699883 -0.405525
vn -0.587551 0.809183 -0.002502
vn -0.588038 0.702332 0.401176
vn -0.589303 0.407955 0.697348
vn -0.591010 0.004936 0.806649
vn -0.592699 -0.398739 0.699797
vn -0.593918 -0.694909 0.405417
vn -0.594342 -0.804209 0.002394
vn -0.870083 -0.426672 -0.246792
vn -0.869305 -0.245664 -0.428904
vn -0.868255 0.002149 -0.496113
vn -0.867217 0.250365 -0.430409
vn -0.866467 0.432475 -0.249400
vn -0.866207 0.499683 -0.001585
vn -0.866506 0.433980 0.246633
vn -0.867285 0.252973 0.428745
vn -0.868333 0.005160 0.495954
vn -0.869372 -0.243056 0.430251
vn -0.870122 -0.425166 0.249241
vn -0.870382 -0.492375 0.001426
vn -0.968400 -0.215312 -0.125864
vn -0.968004 -0.123033 -0.218706
vn -0.967469 0.003304 -0.252969
vn -0.966939 0.129846 -0.219474
vn -0.966557 0.222687 -0.127194
vn -0.966424 0.256950 -0.000856
vn -0.966577 0.223455 0.125687
vn -0.966974 0.131176 0.218529
vn -0.967508 0.004839 0.252793
vn -0.968038 -0.121703 0.219297
vn -0.968420 -0.214544 0.127017
vn -0.968553 -0.248807 0.000679
vn -0.982378 -0.161074 -0.094805
vn -0.982080 -0.091584 -0.164719
vn -0.981677 0.003553 -0.190521
vn -0.981278 0.098846 -0.165297
vn -0.980990 0.168759 -0.095806
vn -0.980890 0.194561 -0.000668
vn -0.981005 0.169337 0.094625
vn -0.981304 0.099847 0.164539
vn -0.981707 0.004710 0.190341
vn -0.982105 -0.090583 0.165117
vn -0.982393 -0.160496 0.095626
vn -0.982493 -0.186298 0.000488
vn 0.002036 0.502622 0.864504
vn 0.003606 0.867531 0.497370
vn 0.003606 0.867531 0.497370
vn 0.002036 0.502622 0.864504
vn -0.000079 0.003036 0.999995
vn -0.000079 0.003036 0.999995
vn -0.002172 -0.497365 0.867539
vn -0.002172 -0.497365 0.867539
vn -0.003684 -0.864496 0.502627
vn -0.003684 -0.864496 0.502627
vn -0.004209 -0.999987 0.003035
vn -0.004209 -0.999987 0.003035
vn -0.003606 -0.867531 -0.497370
vn -0.003606 -0.867531 -0.497370
vn -0.002036 -0.502623 -0.864504
vn -0.002036 -0.502623 -0.864504
vn 0.000079 -0.003036 -0.999995
vn 0.000079 -0.003036 -0.999995
vn 0.002172 0.497365 -0.867539
vn 0.002172 0.497365 -0.867539
vn 0.003684 0.864496 -0.502627
vn 0.003684 0.864496 -0.502627
vn 0.004209 0.999987 -0.003035
vn 0.004209 0.999987 -0.003035
s 1
g pTorus1
usemtl initialShadingGroup
f 2/2/1 1/1/2 13/14/3 14/15/4
f 3/3/5 2/2/1 14/15/4 15/16/6
f 4/4/7 3/3/5 15/16/6 16/17/8
f 5/5/9 4/4/7 16/17/8 17/18/10
f 6/6/11 5/5/9 17/18/10 18/19/12
f 7/7/13 6/6/11 18/19/12 19/20/14
f 8/8/15 7/7/13 19/20/14 20/21/16
f 9/9/17 8/8/15 20/21/16 21/22/18
f 10/10/19 9/9/17 21/22/18 22/23/20
f 11/11/21 10/10/19 22/23/20 23/24/22
f 12/12/23 11/11/21 23/24/22 24/25/24
f 1/13/2 12/12/23 24/25/24 13/26/3
f 14/15/4 13/14/3 25/27/25 26/28/26
f 15/16/6 14/15/4 26/28/26 27/29/27
f 16/17/8 15/16/6 27/29/27 28/30/28
f 17/18/10 16/17/8 28/30/28 29/31/29
f 18/19/12 17/18/10 29/31/29 30/32/30
f 19/20/14 18/19/12 30/32/30 31/33/31
f 20/21/16 19/20/14 31/33/31 32/34/32
f 21/22/18 20/21/16 32/34/32 33/35/33
f 22/23/20 21/22/18 33/35/33 34/36/34
f 23/24/22 22/23/20 34/36/34 35/37/35
f 24/25/24 23/24/22 35/37/35 36/38/36
f 13/26/3 24/25/24 36/38/36 25/39/25
f 26/28/26 25/27/25 37/40/37 38/41/38
f 27/29/27 26/28/26 38/41/38 39/42/39
f 28/30/28 27/29/27 39/42/39 40/43/40
f 29/31/29 28/30/28 40/43/40 41/44/41
f 30/32/30 29/31/29 41/44/41 42/45/42
f 31/33/31 30/32/30 42/45/42 43/46/43
f 32/34/32 31/33/31 43/46/43 44/47/44
f 33/35/33 32/34/32 44/47/44 45/48/45
f 34/36/34 33/35/33 45/48/45 46/49/46
f 35/37/35 34/36/34 46/49/46 47/50/47
f 36/38/36 35/37/35 47/50/47 48/51/48
f 25/39/25 36/38/36 48/51/48 37/52/37
f 38/41/38 37/40/37 49/53/49 50/54/50
f 39/42/39 38/41/38 50/54/50 51/55/51
f 40/43/40 39/42/39 51/55/51 52/56/52
f 41/44/41 40/43/40 52/56/52 53/57/53
f 42/45/42 41/44/41 53/57/53 54/58/54
f 43/46/43 42/45/42 54/58/54 55/59/55
f 44/47/44 43/46/43 55/59/55 56/60/56
f 45/48/45 44/47/44 56/60/56 57/61/57
f 46/49/46 45/48/45 57/61/57 58/62/58
f 47/50/47 46/49/46 58/62/58 59/63/59
f 48/51/48 47/50/47 59/63/59 60/64/60
f 37/52/37 48/51/48 60/64/60 49/65/49
f 50/54/50 49/53/49 61/66/61 62/67/62
f 51/55/51 50/54/50 62/67/62 63/68/63
f 52/56/52 51/55/51 63/68/63 64/69/64
f 53/57/53 52/56/52 64/69/64 65/70/65
f 54/58/54 53/57/53 65/70/65 66/71/66
f 55/59/55 54/58/54 66/71/66 67/72/67
f 56/60/56 55/59/55 67/72/67 68/73/68
f 57/61/57 56/60/56 68/73/68 69/74/69
f 58/62/58 57/61/57 69/74/69 70/75/70
f 59/63/59 58/62/58 70/75/70 71/76/71
f 60/64/60 59/63/59 71/76/71 72/77/72
f 49/65/49 60/64/60 72/77/72 61/78/61
f 62/67/62 61/66/61 73/79/73 74/80/74
f 63/68/63 62/67/62 74/80/74 75/81/75
f 64/69/64 63/68/63 75/81/75 76/82/76
f 65/70/65 64/69/64 76/82/76 77/83/77
f 66/71/66 65/70/65 77/83/77 78/84/78
f 67/72/67 66/71/66 78/84/78 79/85/79
f 68/73/68 67/72/67 79/85/79 80/86/80
f 69/74/69 68/73/68 80/86/80 81/87/81
f 70/75/70 69/74/69 81/87/81 82/88/82
f 71/76/71 70/75/70 82/88/82 83/89/83
f 72/77/72 71/76/71 83/89/83 84/90/84
f 61/78/61 72/77/72 84/90/84 73/91/73
f 74/80/74 73/79/73 85/92/85 86/93/86
f 75/81/75 74/80/74 86/93/86 87/94/87
f 76/82/76 75/81/75 87/94/87 88/95/88
f 77/83/77 76/82/76 88/95/88 89/96/89
f 78/84/78 77/83/77 89/96/89 90/97/90
f 79/85/79 78/84/78 90/97/90 91/98/91
f 80/86/80 79/85/79 91/98/91 92/99/92
f 81/87/81 80/86/80 92/99/92 93/100/93
f 82/88/82 81/87/81 93/100/93 94/101/94
f 83/89/83 82/88/82 94/101/94 95/102/95
f 84/90/84 83/89/83 95/102/95 96/103/96
f 73/91/73 84/90/84 96/103/96 85/104/85
f 86/93/86 85/92/85 97/105/97 98/106/98
f 87/94/87 86/93/86 98/106/98 99/107/99
f 88/95/88 87/94/87 99/107/99 100/108/100
f 89/96/89 88/95/88 100/108/100 101/109/101
f 90/97/90 89/96/89 101/109/101 102/110/102
f 91/98/91 90/97/90 102/110/102 103/111/103
f 92/99/92 91/98/91 103/111/103 104/112/104
f 93/100/93 92/99/92 104/112/104 105/113/105
f 94/101/94 93/100/93 105/113/105 106/114/106
f 95/102/95 94/101/94 106/114/106 107/115/107
f 96/103/96 95/102/95 107/115/107 108/116/108
f 85/104/85 96/103/96 108/116/108 97/117/97
s 2
f 98/106/109 97/105/110 1/1/111 2/2/112
f 99/107/113 98/106/109 2/2/112 3/3/114
f 100/108/115 99/107/113 3/3/114 4/4/116
f 101/109/117 100/108/115 4/4/116 5/5/118
f 102/110/119 101/109/117 5/5/118 6/6/120
f 103/111/121 102/110/119 6/6/120 7/7/122
f 104/112/123 103/111/121 7/7/122 8/8/124
f 9/9/125 105/113/126 104/112/123 8/8/124
f 10/10/127 106/114/128 105/113/126 9/9/125
f 11/11/129 107/115/130 106/114/128 10/10/127
f 12/12/131 108/116/132 107/115/130 11/11/129
f 97/117/110 108/116/132 12/12/131 1/13/111
